<svg xmlns="http://www.w3.org/2000/svg" version="1.1" xmlns:xlink="http://www.w3.org/1999/xlink" xmlns:svgjs="http://svgjs.dev/svgjs" width="1500" height="1500" viewBox="0 0 1500 1500"><rect width="1500" height="1500" fill="#000000"></rect><g transform="matrix(0.6666666666666666,0,0,0.6666666666666666,249.39393939393938,576.0651418084353)"><svg viewBox="0 0 396 138" data-background-color="#ffffff" preserveAspectRatio="xMidYMid meet" height="522" width="1500" xmlns="http://www.w3.org/2000/svg" xmlns:xlink="http://www.w3.org/1999/xlink"><g id="tight-bounds" transform="matrix(1,0,0,1,0.2400000000000091,-0.02583209644851081)"><svg viewBox="0 0 395.52 138.051664192897" height="138.051664192897" width="395.52"><g><svg viewBox="0 0 636.0548203043043 222.00755072037634" height="138.051664192897" width="395.52"><g transform="matrix(1,0,0,1,240.53482030430422,0)"><svg viewBox="0 0 395.52 222.00755072037634" height="222.00755072037634" width="395.52"><g id="textblocktransform"><svg viewBox="0 0 395.52 222.00755072037634" height="222.00755072037634" width="395.52" id="textblock"><g><svg viewBox="0 0 395.52 222.00755072037634" height="222.00755072037634" width="395.52"><g transform="matrix(1,0,0,1,0,0)"><svg width="395.52" viewBox="2.86 -36.23 83.02 46.61" height="222.00755072037634" data-palette-color="#000000"><path d="M20.41-26.42L20.41 0.68Q20.41 5.25 17.68 7.81 14.94 10.38 9.89 10.38L9.89 10.38Q7.96 10.38 5.96 10.06 3.96 9.74 2.86 9.33L2.86 9.33 2.86 5.91Q6.52 6.74 9.52 6.74L9.52 6.74Q12.65 6.74 14.33 5.13 16.02 3.52 16.02 0.61L16.02 0.61 16.02-22.95 6.08-22.95 6.08-26.42 20.41-26.42ZM20.41-31.54L15.53-31.54 15.53-36.23 20.41-36.23 20.41-31.54ZM56.88-2.71L56.88-2.71Q57.52-2.71 58.32-2.88L58.32-2.88 58.32-0.15Q56.66 0.24 54.93 0.24L54.93 0.24Q52.49 0.24 51.38-1.04 50.27-2.32 50.12-5.05L50.12-5.05 49.97-5.05Q48.39-2.1 46.23-0.81 44.06 0.49 40.89 0.49L40.89 0.49Q37.03 0.49 35.08-1.61 33.13-3.71 33.13-7.37L33.13-7.37Q33.13-15.89 44.21-16.02L44.21-16.02 49.97-16.11 49.97-17.55Q49.97-20.75 48.68-22.16 47.39-23.56 44.55-23.56L44.55-23.56Q41.67-23.56 40.4-22.53 39.13-21.51 38.89-19.36L38.89-19.36 34.3-19.78Q35.42-26.9 44.63-26.9L44.63-26.9Q49.51-26.9 51.96-24.62 54.42-22.34 54.42-18.02L54.42-18.02 54.42-6.64Q54.42-4.69 54.93-3.7 55.44-2.71 56.88-2.71ZM42.01-2.86L42.01-2.86Q44.36-2.86 46.16-3.98 47.97-5.1 48.97-6.98 49.97-8.86 49.97-10.86L49.97-10.86 49.97-13.04 45.33-12.94Q42.45-12.89 40.94-12.3 39.43-11.72 38.58-10.51 37.74-9.3 37.74-7.3L37.74-7.3Q37.74-5.3 38.83-4.08 39.91-2.86 42.01-2.86ZM85.88-7.54L85.88-7.54Q85.88-3.78 83.04-1.65 80.2 0.49 75.17 0.49L75.17 0.49Q70.14 0.49 67.51-1.09 64.89-2.66 64.08-6.05L64.08-6.05 67.96-6.81Q68.43-4.71 69.95-3.75 71.48-2.78 75.17-2.78L75.17-2.78Q81.76-2.78 81.76-6.96L81.76-6.96Q81.76-8.52 80.56-9.48 79.37-10.45 76.9-11.06L76.9-11.06Q70.45-12.65 68.72-13.55 66.99-14.45 66.06-15.81 65.13-17.16 65.13-19.19L65.13-19.19Q65.13-22.78 67.72-24.8 70.31-26.83 75.21-26.83L75.21-26.83Q79.51-26.83 82.08-25.21 84.64-23.58 85.27-20.48L85.27-20.48 81.32-20Q81.05-21.75 79.58-22.66 78.12-23.56 75.21-23.56L75.21-23.56Q69.23-23.56 69.23-19.87L69.23-19.87Q69.23-18.41 70.25-17.53 71.26-16.65 73.51-16.11L73.51-16.11 76.41-15.36Q80.39-14.38 82.14-13.43 83.88-12.48 84.88-11.05 85.88-9.62 85.88-7.54Z" opacity="1" transform="matrix(1,0,0,1,0,0)" fill="#ffffff" class="wordmark-text-0" data-fill-palette-color="primary" id="text-0"></path></svg></g></svg></g></svg></g></svg></g><g transform="matrix(1,0,0,1,0,43.14701975189962)"><svg viewBox="0 0 135.7135112165771 135.7135112165771" height="135.7135112165771" width="135.7135112165771"><g><svg></svg></g><g id="icon-0"><svg viewBox="0 0 135.7135112165771 135.7135112165771" height="135.7135112165771" width="135.7135112165771"><g><path d="M0 67.857c0-37.476 30.381-67.857 67.857-67.857 37.476 0 67.857 30.381 67.857 67.857 0 37.476-30.381 67.857-67.857 67.857-37.476 0-67.857-30.381-67.857-67.857zM67.857 115.693c26.419 0 47.836-21.417 47.836-47.836 0-26.419-21.417-47.836-47.836-47.836-26.419 0-47.836 21.417-47.836 47.836 0 26.419 21.417 47.836 47.836 47.836z" data-fill-palette-color="tertiary" fill="#ffffff" stroke="transparent"></path></g><g transform="matrix(1,0,0,1,51.4909664046203,39.6489463820831)"><svg viewBox="0 0 32.7315784073365 56.4156184524109" height="56.4156184524109" width="32.7315784073365"><g><svg xmlns="http://www.w3.org/2000/svg" xmlns:xlink="http://www.w3.org/1999/xlink" version="1.1" x="0" y="0" viewBox="21.679106830508623 1 56.85827385947761 98" enable-background="new 0 0 100 100" xml:space="preserve" height="56.4156184524109" width="32.7315784073365" class="icon-cg-0" data-fill-palette-color="accent" id="cg-0"><g fill="#261f20" data-fill-palette-color="accent"><path fill-rule="evenodd" clip-rule="evenodd" d="M30.545 28.822c-1.165 7.217 0.33 14.85 6.5 19.041C30.758 19.81 45.756 8.664 59.646 1c-16.18 23.046 16.896 23.644 18.777 50.13C80.028 73.71 64.507 91.317 46.639 99c0.206-22.825-22.55-25.933-24.838-44.603C20.905 47.094 25.062 33.766 30.545 28.822z" fill="#ffffff" data-fill-palette-color="accent"></path></g></svg></g></svg></g></svg></g></svg></g></svg></g><defs></defs></svg><rect width="395.52" height="138.051664192897" fill="none" stroke="none" visibility="hidden"></rect></g></svg></g></svg>